<svg width="261.73mm" height="150.28mm" version="1.1" viewBox="0 0 261.73 150.28" xml:space="preserve" xmlns="http://www.w3.org/2000/svg"><g transform="translate(-11.89 -22.779)"><path transform="scale(.26458)" d="m50.071 307.49v-64.835h30.813v15.284l-16.048 0.76446v38.516l14.764 0.77007v15.278h-15.406v59.058h-14.122zm8.987 3.2854c0-2.1523-2.277-2.6852-3.0348-0.71032-0.44717 1.1653 4e-3 1.9184 1.1493 1.9184 1.037 0 1.8855-0.54364 1.8855-1.2081z" fill="#f4eed7"/><g fill="#f4eed7"><path transform="scale(.26458)" d="m56.819 222.56c-2.2905-1.1292-5.2606-3.8603-6.6002-6.0691-4.5013-7.4221-6.5481-24.439-4.4595-37.076 0.79261-4.7953 0.82074-4.8145 7.0471-4.8145h6.2513v15.161c0 16.146 1.2299 20.196 5.8622 19.304 3.9729-0.76503 6.0171-9.0514 5.3457-21.669-0.68717-12.915-2.2819-16.511-12.015-27.098-9.4049-10.23-12.168-16.889-12.979-31.275-0.71032-12.605 1.6386-25.193 5.7525-30.827 3-4.1089 11.238-7.3931 15.949-6.3583 10.1 2.2183 15.194 12.556 15.194 30.831v10.512l-4.8145 0.79579c-8.3542 1.3809-8.1168 1.6377-7.2457-7.842 1.3834-15.054-3.3745-24.921-8.7914-18.231-2.9199 3.606-3.1501 20.993-0.3661 27.656 1.0405 2.4904 5.3809 8.3936 9.6452 13.118 13.048 14.457 17.26 34.167 12.125 56.743-2.2901 10.069-5.5233 14.924-11.64 17.48-5.4698 2.2854-9.1096 2.1983-14.261-0.3413zm-8.0321-94.178c0-0.70613-0.57774-1.2839-1.2839-1.2839s-1.2839 0.57774-1.2839 1.2839c0 0.70612 0.57774 1.2839 1.2839 1.2839s1.2839-0.57774 1.2839-1.2839z"/><path transform="scale(.26458)" d="m138.32 643.28c-12.07-7.6546-18.83-22.89-22.221-50.084-2.4513-19.658-2.6337-97.455-0.23019-98.201 19.248-5.9751 24.141-7.2333 25.314-6.5089 0.97365 0.60174 1.3628 14.463 1.2738 45.382-0.16676 58.002 1.6622 69.638 11.094 70.576 9.9202 0.98633 11.928-8.908 12.061-59.441 0.0926-35.218-1.6522-80.302-3.205-82.815-0.34984-0.56606-2.3228-9.6069-4.3843-20.091-3.2975-16.769-13.44-52.973-16.849-60.145-0.67135-1.4122-3.2876-9.2117-5.814-17.332-19.137-61.513-21.193-76.669-21.184-156.18 6e-3 -52.45 0.94248-69.142 4.7419-84.541 2.3263-9.4285 7.0001-21.184 8.4225-21.184 0.57619 0 1.0476-0.74936 1.0476-1.6652 0-2.5903 9.1006-10.828 14.402-13.037 11.194-4.6634 27.96-0.45399 35.011 8.7903 5.2091 6.8294 9.612 17.907 12.393 31.18 2.2906 10.932 2.7284 18.785 3.2969 59.138 0.36055 25.593 0.2922 47.98-0.15189 49.75-0.48367 1.9271-1.7243 3.2171-3.094 3.2171-1.2576 0-2.8353 0.49817-3.5062 1.107-1.1447 1.039-16.973 5.3123-19.677 5.3123-0.76733 0-1.4421-19.683-1.7714-51.676-0.56177-54.573-0.93676-58.192-6.7172-64.833-2.941-3.3789-3.2319-3.4476-6.6805-1.5766-2.5127 1.3632-4.3783 4.0872-6.155 8.987-2.3986 6.615-2.5505 10.411-2.5677 64.163-0.015 46.637 0.38203 60.091 2.1613 73.241 2.2536 16.655 12.179 57.828 16.388 67.984 1.317 3.1776 3.3415 9.4449 4.4989 13.928 1.1574 4.4826 2.5816 9.1045 3.1648 10.271 1.7283 3.4565 8.8933 26.95 11.806 38.711 9.7987 39.566 12.209 60.336 13.186 113.62 0.66342 36.186-0.70118 70.832-3.1783 80.695-0.73542 2.9281-1.6084 7.231-1.9399 9.5619-0.88676 6.2343-4.3377 15.816-7.0991 19.712-1.3287 1.8743-2.4158 3.9275-2.4158 4.5626 0 1.7894-7.8787 8.8393-12.454 11.144-2.6671 1.3434-7.4216 2.0695-13.55 2.0695-8.2507 0-10.195-0.47794-15.417-3.7898zm-6.0815-86.081c0-0.70613-0.57774-1.2839-1.2839-1.2839-0.70612 0-1.2839 0.57774-1.2839 1.2839 0 0.70612 0.57774 1.2839 1.2839 1.2839 0.70613 0 1.2839-0.57774 1.2839-1.2839z"/><path transform="scale(.26458)" d="m243.29 647.2c-20.178-5.1627-30.013-26.624-32.714-71.386-1.3758-22.8-1.8061-453.62-0.47216-472.78l0.82678-11.876h27.728l0.0642 242.33c0.0431 162.68 0.51172 245.92 1.4258 253.24 1.293 10.363 3.6156 16.497 6.3807 16.851 0.68985 0.0883 1.9764 0.26271 2.8591 0.38765 3.5643 0.50452 7.3674-2.4645 9.5593-7.4628 2.2027-5.0227 2.3332-17.558 2.6594-255.31l0.34303-250.03h29.548l-0.4236 247.46c-0.38354 224.07-0.62584 248.61-2.563 259.54-4.6453 26.223-12.154 40.34-24.602 46.254-6.1745 2.9334-15.247 4.1581-20.619 2.7835zm-16.048-464.89c0-0.70613-0.57774-1.2839-1.2839-1.2839-0.70612 0-1.2839 0.57773-1.2839 1.2839 0 0.70612 0.57774 1.2839 1.2839 1.2839 0.70613 0 1.2839-0.57774 1.2839-1.2839zm50.846-54.858c-1.3051-1.3051-2.3819 0.65977-1.3111 2.3923 0.80888 1.3088 1.1113 1.3098 1.5462 5e-3 0.29734-0.89201 0.19156-1.9709-0.23505-2.3975z"/><path transform="scale(.26458)" d="m309.41 367.19v-276.03h21.027c15.869 0 22.168 0.47662 25.677 1.943 2.5577 1.0687 4.6503 1.6261 4.6503 1.2387 0-1.3214 5.3532 2.1572 10.563 6.8643 9.4396 8.5282 15.007 25.442 19.09 57.999 2.0876 16.645 3.0099 150.16 1.252 181.23-1.8932 33.459-5.1198 57.014-8.5396 62.341-1.0048 1.5652-2.0268 3.8762-2.2711 5.1354-1.5561 8.0214-8.3571 16.621-16.599 20.988-3.7642 1.9947-8.4621 3.0601-15.371 3.4858l-9.9499 0.61314v210.22h-29.529zm45.815 20.221c3.7512-4.1504 6.4431-16.741 6.9906-32.696 0.26132-7.6144 0.47512-52.553 0.47512-99.863 0-88.7-0.62534-101.98-5.361-113.81-2.3096-5.7724-7.0664-8.7976-13.833-8.7976h-4.5573v258.06h6.8374c5.4612 0 7.363-0.58143 9.4483-2.8887zm24.798-182.74c0-1.118-0.68606-1.8041-1.5246-1.5246-2.3806 0.79352-2.7754 3.5574-0.50819 3.5574 1.118 0 2.0328-0.91475 2.0328-2.0328z"/><path transform="scale(.26458)" d="m408.27 367.16v-276.05l66.119 0.68528 0.35357 20.221 0.35356 20.221h-17.273c-13.991 0-17.656 0.38335-19.291 2.0175-1.8009 1.8009-2.0154 13.07-1.9978 104.96 0.0108 56.616 0.45257 103.62 0.98168 104.45 0.62494 0.98262 6.3536 1.6574 16.35 1.9258l15.388 0.41319 0.35276 20.863 0.35277 20.863h-15.181c-10.096 0-15.697 0.51609-16.722 1.5406-2.0395 2.0395-2.2452 205.3-0.2116 209.1 1.2166 2.2732 2.8461 2.4833 19.258 2.4833h17.929v42.368h-66.761z"/><path transform="scale(.26458)" d="m489.47 642.16c-1.2813-0.81353-1.542-56.802-1.2839-275.69l0.32392-274.67 20.419-0.35457c24.525-0.42587 30.838 0.97088 39.718 8.7872 3.2946 2.9 6.34 6.6665 6.7676 8.37 0.42754 1.7035 1.2224 3.0972 1.7663 3.0972 1.868 0 6.0684 13.266 9.1465 28.887 3.3192 16.845 5.0328 63.551 4.5218 123.25-0.54806 64.03-2.147 86.925-7.1704 102.67-1.3575 4.2559-2.7787 9.2245-3.1583 11.041-0.37957 1.8168-2.6006 5.861-4.9356 8.987-5.2163 6.9835-5.4999 9.7784-2.9399 28.973 1.1169 8.3746 2.8637 23.604 3.8818 33.842s2.9794 28.149 4.3586 39.8c1.3791 11.651 3.7272 32.739 5.2181 46.861s3.5559 32.61 4.5891 41.084c3.4864 28.593 7.0468 60.614 7.0468 63.375 0 2.6353-0.55544 2.7438-14.047 2.7438-7.7257 0-14.378-0.53665-14.784-1.1926-0.739-1.1957-7.4678-61.059-9.0297-80.333-0.45776-5.649-1.6592-16.501-2.6698-24.117-1.0106-7.6151-1.8407-17.148-1.8447-21.184-4e-3 -4.0359-0.53538-9.3602-1.181-11.832-0.64561-2.4714-1.497-8.5377-1.892-13.481-0.39497-4.9429-1.2712-13.609-1.9472-19.258s-1.6031-14.315-2.0602-19.258c-0.45713-4.9429-1.586-15.893-2.5087-24.334-0.92263-8.4406-1.4186-16.021-1.1023-16.846 0.60442-1.5751-2.8099-5.6818-4.7238-5.6818-0.61402 0-1.4517 0.54248-1.8614 1.2055-0.40978 0.66304-0.73576 54.104-0.7244 118.76l0.0206 117.55-13.153-0.0196c-7.2341-0.0108-13.876-0.47904-14.761-1.0405zm41.501-280.18c3.5167-2.9186 6.9147-11.069 8.3746-20.087 0.84211-5.2018 1.6742-38.003 2.0614-81.261 0.54062-60.397 0.30487-76.148-1.4084-94.105-1.2306-12.898-2.8377-23.075-3.9981-25.319-3.3358-6.4508-6.9978-8.9622-13.068-8.9622h-5.5353l-0.0319 13.802c-0.0228 9.8581 4e-3 206.79 0.0293 217.78 4e-3 1.6472 11.201 0.12208 13.576-1.8491z"/><path transform="scale(.26458)" d="m589.3 375.01c3e-3 -147.51 0.37316-271.73 0.82287-276.03l0.81764-7.8228h9.4216c8.7311 0 9.467 0.21173 10.041 2.8887 1.9014 8.8643 5.0049 26.921 14.839 86.34 0.81811 4.9429 2.0392 12.101 2.7136 15.907 3.1205 17.612 8.8904 51.158 10.072 58.557 0.56363 3.5306 2.1999 12.774 3.6362 20.542 1.4363 7.7674 2.8852 16.145 3.2198 18.616 0.33459 2.4714 1.5039 9.1154 2.5985 14.764 1.0946 5.649 2.9276 16.626 4.0733 24.393 1.1457 7.7674 2.9129 17.878 3.927 22.468 1.0142 4.5898 2.1019 10.367 2.4172 12.839s1.13 7.6711 1.8103 11.555 1.8628 10.817 2.6278 15.406c2.6521 15.913 4.3575 23.189 5.6178 23.968 0.83151 0.5139 1.0708-55.73 0.69652-163.73l-0.57009-164.51h27.769v552.06h-4.975c-2.7362 0-6.7533-0.35567-8.9268-0.79037-4.3875-0.8775-3.6863 1.2786-9.1371-28.097-1.4413-7.7674-3.1897-17.878-3.8853-22.468-0.6956-4.5898-2.1538-12.678-3.2404-17.974-1.0866-5.2959-2.8028-14.54-3.8137-20.542-1.0109-6.0021-2.9849-17.268-4.3866-25.035-1.4018-7.7674-2.8308-15.856-3.1757-17.974-0.84746-5.2056-6.8276-38.632-9.1875-51.355-1.0479-5.649-2.1588-12.004-2.4687-14.122-2.3118-15.802-3.4738-22.252-4.51-25.035-0.65723-1.7653-1.7905-7.5427-2.5183-12.839s-2.1987-13.924-3.2686-19.174c-1.0699-5.2498-2.2376-11.98-2.5948-14.957-0.35727-2.9763-1.484-9.0803-2.5039-13.564-1.0199-4.4841-3.1125-15.664-4.6503-24.843-1.5378-9.1796-3.2907-17.557-3.8954-18.616-1.3266-2.3236-1.2745-10.033-1.1985 177.49l0.0608 149.89h-28.281zm8.9779 197.6c0-0.70612-0.57774-1.2839-1.2839-1.2839-0.70613 0-1.2839 0.57774-1.2839 1.2839 0 0.70613 0.57773 1.2839 1.2839 1.2839 0.70612 0 1.2839-0.57773 1.2839-1.2839zm17.567-91.395c-0.40985-1.0242-0.71407-0.71997-0.77567 0.77567-0.0557 1.3534 0.24769 2.1117 0.67431 1.6851 0.42662-0.42662 0.47223-1.534 0.10136-2.4607zm-7.8009-42.874c-0.42861-1.1169-0.77929-2.3065-0.77929-2.6435 0-0.33699-0.55251-0.27124-1.2278 0.14612-1.4905 0.92118-0.29367 4.5282 1.5025 4.5282 0.70612 0 0.93318-0.91385 0.50457-2.0308z"/><path transform="scale(.26458)" d="m763.65 646.6c-3.3165-0.91751-8.3467-3.2013-11.178-5.0751-9.1117-6.0298-19.838-22.886-22.589-35.499-0.53404-2.4482-1.4212-5.3369-1.9714-6.4193-3.6724-7.224-8.538-39.121-10.288-67.445-2.6407-42.742-3.3712-76.819-3.3714-157.27-2.6e-4 -123.18 2.419-176.64 9.9356-219.54 3.4351-19.608 10.294-42.368 12.768-42.368 0.52192 0 1.2813-1.5888 1.6876-3.5306 0.82198-3.929 10.874-15.747 13.384-15.735 0.88265 0.0041 2.7298-1.1175 4.1048-2.4925 6.0656-6.0655 23.105-6.7182 33.932-1.2997 7.7765 3.892 15.582 12.51 19.72 21.774 1.7349 3.8837 3.9766 8.9063 4.9817 11.161 2.0807 4.6685 6.9438 23.499 7.562 29.28 0.2265 2.1184 1.3257 8.9684 2.4427 15.222 2.0239 11.331 3.7778 31.272 5.3238 60.526 0.4478 8.4735 1.0048 17.717 1.2378 20.542s0.82462 42.111 1.3147 87.303c1.3018 120.04-1.5262 202.28-8.3661 243.29-5.5882 33.506-17.928 57.378-33.642 65.08-7.219 3.5386-19.213 4.6481-26.989 2.4969zm18.826-46.234c4.4563-4.4564 8.0465-17.688 9.6841-35.691 1.0123-11.129 1.3035-73.141 0.98145-209.04-0.44798-189.06-0.51419-193.46-3.072-204.27-3.7815-15.977-8.4305-21.693-17.644-21.693-5.8428 0-11.322 6.4049-14.118 16.502-4.4505 16.076-4.8372 36.675-4.3781 233.21 0.40391 172.9 0.66435 193.45 2.548 201.11 2.5453 10.348 6.4037 18.212 10.261 20.914 4.4172 3.0939 12.112 2.5855 15.737-1.0399zm42.523-340.7c-1.4025-1.4025-2.3642 0.82791-1.3573 3.1478 0.95478 2.1997 1.024 2.1977 1.556-0.0451 0.3062-1.291 0.21679-2.6872-0.19869-3.1027z"/><path transform="scale(.26458)" d="m888.66 650.92c-0.11255-2.4714-1.0863-12.004-2.1639-21.184-3.5231-30.012-12.131-113.65-14.138-137.37-0.41821-4.9429-1.3396-13.897-2.0475-19.898-1.8008-15.266-5.988-56.985-8.247-82.169-1.0451-11.651-3.0262-31.294-4.4024-43.651-1.3762-12.357-3.6934-34.889-5.1492-50.071-1.4558-15.182-3.4766-35.403-4.4906-44.935-2.322-21.829-5.5129-54.372-6.4833-66.119-0.40833-4.9429-0.99269-10.143-1.2986-11.555-0.3059-1.4122-1.997-17.589-3.758-35.948-1.761-18.359-3.5437-36.41-3.9614-40.112l-0.75961-6.7318 30.729 0.15073 0.75035 5.3726c0.41269 2.9549 1.6425 16.927 2.7329 31.05 1.9356 25.068 5.044 64.161 6.5336 82.167 0.79059 9.5568 1.1188 14.286 2.4057 34.664 0.44592 7.0612 1.634 19.483 2.6402 27.603 1.0062 8.1204 2.4405 23.142 3.1873 33.38 0.74679 10.239 1.8597 25.26 2.4732 33.38 0.61349 8.1204 1.1343 15.631 1.1574 16.69 0.0231 1.0592 0.64754 7.1254 1.3877 13.481 0.74019 6.3551 1.3649 16.754 1.3883 23.11 0.0388 10.566 1.3122 16.451 3.1596 14.604 0.40062-0.40062 1.2716-7.6056 1.9355-16.011 2.9613-37.491 6.4998-80.684 7.7203-94.24 2.0523-22.795 3.8457-44.764 4.5125-55.28 0.33323-5.2551 1.7795-23.132 3.2139-39.725 1.4344-16.594 3.4462-39.992 4.4706-51.996 1.0244-12.004 2.574-30.058 3.4434-40.121l1.5808-18.295h30.338l-0.71768 4.8145c-1.2132 8.1385-5.7588 50.231-7.0363 65.156-0.66484 7.7674-1.82 19.033-2.5669 25.035-0.74698 6.0021-1.6433 15.246-1.9919 20.542-0.34857 5.2959-1.1736 12.518-1.8334 16.048-0.65977 3.5306-1.8284 15.085-2.597 25.677-0.76858 10.592-1.9433 21.858-2.6106 25.035s-1.7862 14.535-2.4867 25.239c-0.70043 10.704-1.8571 20.996-2.5704 22.872-0.71326 1.876-1.3149 7.2731-1.3369 11.993-0.022 4.7204-0.90189 15.515-1.9553 23.989-1.0534 8.4735-2.2125 19.451-2.5758 24.393-0.36331 4.9429-1.5663 16.209-2.6733 25.035-1.107 8.8266-2.2315 19.226-2.4989 23.11-0.69303 10.065-3.0974 34.604-3.8367 39.158-0.77242 4.7576-4.6142 41.409-4.71 44.935-0.0384 1.4122-1.1464 12.1-2.4622 23.751-1.3158 11.651-3.2682 31.005-4.3387 43.009-1.0705 12.004-2.1884 22.692-2.4843 23.751s-0.8682 6.5477-1.2718 12.197c-0.40364 5.649-1.3056 14.315-2.0044 19.258-0.69876 4.9429-1.4565 11.298-1.6839 14.122-0.39799 4.9432-0.42113 4.9673-0.6181 0.64193z"/><path transform="scale(.26458)" d="m914.59 634.59c0.4605-4.7904 1.1326-12.979 1.4936-18.196s1.2347-13.306 1.9416-17.974c0.70691-4.6683 2.1269-17.154 3.1554-27.746 1.0286-10.592 2.5074-24.169 3.2864-30.171s1.6571-14.09 1.9516-17.974 1.1151-11.683 1.8236-17.332 3.0334-27.314 5.1666-48.145c2.1331-20.831 4.2429-39.607 4.6885-41.726 0.44557-2.1184 0.94256-5.5848 1.1044-7.7032 0.86537-11.325 5.8145-60.713 6.304-62.909 0.31479-1.4122 1.4677-11.523 2.5621-22.468 1.727-17.272 4.9245-46.352 6.4232-58.416 0.26316-2.1184 0.82743-7.8958 1.2539-12.839 0.42648-4.9429 1.9031-19.097 3.2814-31.455 1.3783-12.357 3.3948-30.845 4.4812-41.084 4.1894-39.484 9.7762-89.286 10.154-90.512 0.21743-0.70612 1.0685 4.4935 1.8913 11.555 2.8694 24.625 13.175 119.49 14.295 131.6 0.62101 6.7082 2.0489 19.858 3.173 29.221 1.1242 9.3633 2.2778 19.763 2.5637 23.11 0.2859 3.347 1.1274 10.996 1.8699 16.998 0.74255 6.0021 3.3886 29.978 5.8802 53.28 2.4916 23.302 5.3589 49.878 6.3719 59.058 1.013 9.1796 2.7655 25.645 3.8945 36.59s2.8992 27.41 3.9337 36.59c1.0346 9.1796 2.1461 19.868 2.4702 23.751 0.324 3.8837 2.3305 22.949 4.4588 42.368 2.1284 19.418 5.06 46.861 6.5147 60.984s2.8543 26.688 3.1102 27.924c0.4231 2.043-0.9639 2.2468-15.297 2.2468h-15.762l-0.8197-7.3822c-0.4509-4.0602-2.2387-23.27-3.9729-42.688-1.7343-19.418-3.8377-42.961-4.6744-52.317l-1.5212-17.011-8.4733-0.14441c-4.6603-0.0794-13.02-0.22386-18.576-0.32096-9.016-0.15756-10.206 0.0997-11.06 2.3912-0.52639 1.4122-1.6297 11.234-2.4518 21.826-0.8221 10.592-2.3839 27.924-3.4706 38.516-1.0867 10.592-2.2579 23.215-2.6026 28.052-0.34467 4.8368-1.0276 13.214-1.5175 18.616l-0.89084 9.8219-29.246 0.72938zm71.209-153.04c1.3838-0.0855 1.5533-3.1615 0.87229-15.833-1.0493-19.526-1.6357-26.762-2.4847-30.66-0.36428-1.6726-0.95772-7.3742-1.3188-12.67-0.88757-13.02-5.5426-68.19-7.0954-84.093-0.68947-7.0612-1.2685-14.139-1.2867-15.727-0.058-5.0556-2.4174-3.1045-3.105 2.5677-1.0728 8.8494-3.5276 36.829-4.0832 46.54-0.28281 4.9429-0.80931 12.165-1.17 16.048-0.3607 3.8837-1.228 13.705-1.9272 21.826-2.2665 26.32-3.6861 41.239-5.9913 62.965-0.69976 6.5951-0.53194 7.2185 2.2878 8.4982 2.4594 1.1162 12.501 1.3301 25.302 0.53908z"/></g></g></svg>
